name Walk1.mot
datacolumns 19
datarows 17
range 1.63400000 1.65000000
endheader

                time	   L_ground_force_vx	   L_ground_force_vy	   L_ground_force_vz	   L_ground_force_px	   L_ground_force_py	   L_ground_force_pz	   R_ground_force_vx	   R_ground_force_vy	   R_ground_force_vz	   R_ground_force_px	   R_ground_force_py	   R_ground_force_pz	   L_ground_torque_x	   L_ground_torque_y	   L_ground_torque_z	   R_ground_torque_x	   R_ground_torque_y	   R_ground_torque_z	
          1.63400000	         25.29613238	        950.19790636	         71.81625472	         -0.21419772	          0.00000000	         -0.06596895	         -0.00590446	          0.19443603	          0.01488073	          0.00013616	          0.00000000	          0.00011088	          0.00000000	          0.92767221	          0.00000000	          0.00000000	          0.00170586	          0.00000000	
          1.63500000	         25.59193484	        951.10397181	         72.05745014	         -0.21383931	          0.00000000	         -0.06606228	         -0.00683647	          0.20806560	          0.01559602	          0.00014320	          0.00000000	          0.00011641	          0.00000000	          0.95026169	          0.00000000	          0.00000000	          0.00192889	          0.00000000	
          1.63600000	         25.88961961	        951.99332203	         72.29840865	         -0.21347992	          0.00000000	         -0.06615619	         -0.00782685	          0.22210241	          0.01631336	          0.00015031	          0.00000000	          0.00012196	          0.00000000	          0.97283025	          0.00000000	          0.00000000	          0.00216467	          0.00000000	
          1.63700000	         26.18928762	        952.86584825	         72.53900563	         -0.21311960	          0.00000000	         -0.06625066	         -0.00887694	          0.23652633	          0.01702999	          0.00015745	          0.00000000	          0.00012753	          0.00000000	          0.99535490	          0.00000000	          0.00000000	          0.00241342	          0.00000000	
          1.63800000	         26.49103240	        953.72144203	         72.77911794	         -0.21275838	          0.00000000	         -0.06634565	         -0.00998795	          0.25131376	          0.01774289	          0.00016461	          0.00000000	          0.00013309	          0.00000000	          1.01781361	          0.00000000	          0.00000000	          0.00267532	          0.00000000	
          1.63900000	         26.79494012	        954.55999797	         73.01862530	         -0.21239629	          0.00000000	         -0.06644115	         -0.01116095	          0.26643740	          0.01844874	          0.00017175	          0.00000000	          0.00013862	          0.00000000	          1.04018482	          0.00000000	          0.00000000	          0.00295051	          0.00000000	
          1.64000000	         27.10109073	        955.38141599	         73.25741177	         -0.21203338	          0.00000000	         -0.06653710	         -0.01239685	          0.28186605	          0.01914400	          0.00017884	          0.00000000	          0.00014409	          0.00000000	          1.06244682	          0.00000000	          0.00000000	          0.00323909	          0.00000000	
          1.64100000	         27.40955935	        956.18560302	         73.49536651	         -0.21166968	          0.00000000	         -0.06663347	         -0.01369641	          0.29756433	          0.01982481	          0.00018586	          0.00000000	          0.00014947	          0.00000000	          1.08457720	          0.00000000	          0.00000000	          0.00354110	          0.00000000	
          1.64200000	         27.72041737	        956.97247427	         73.73238354	         -0.21130524	          0.00000000	         -0.06673023	         -0.01506016	          0.31349246	          0.02048700	          0.00019276	          0.00000000	          0.00015473	          0.00000000	          1.10655260	          0.00000000	          0.00000000	          0.00385656	          0.00000000	
          1.64300000	         28.03373248	        957.74195409	         73.96836040	         -0.21094009	          0.00000000	         -0.06682733	         -0.01648844	          0.32960601	          0.02112612	          0.00019951	          0.00000000	          0.00015984	          0.00000000	          1.12834894	          0.00000000	          0.00000000	          0.00418540	          0.00000000	
          1.64400000	         28.34956763	        958.49397695	         74.20319635	         -0.21057426	          0.00000000	         -0.06692473	         -0.01798134	          0.34585567	          0.02173738	          0.00020606	          0.00000000	          0.00016477	          0.00000000	          1.14994198	          0.00000000	          0.00000000	          0.00452751	          0.00000000	
          1.64500000	         28.66797904	        959.22848884	         74.43679074	         -0.21020780	          0.00000000	         -0.06702238	         -0.01953872	          0.36218698	          0.02231567	          0.00021237	          0.00000000	          0.00016948	          0.00000000	          1.17130797	          0.00000000	          0.00000000	          0.00488272	          0.00000000	
          1.64600000	         28.98901398	        959.94544933	         74.66904213	         -0.20984073	          0.00000000	         -0.06712025	         -0.02116012	          0.37854007	          0.02285553	          0.00021839	          0.00000000	          0.00017392	          0.00000000	          1.19242431	          0.00000000	          0.00000000	          0.00525076	          0.00000000	
          1.64700000	         29.31270899	        960.64483442	         74.89984815	         -0.20947309	          0.00000000	         -0.06721830	         -0.02284480	          0.39484945	          0.02335117	          0.00022406	          0.00000000	          0.00017806	          0.00000000	          1.21326976	          0.00000000	          0.00000000	          0.00563133	          0.00000000	
          1.64800000	         29.63908938	        961.32663929	         75.12910555	         -0.20910490	          0.00000000	         -0.06731647	         -0.02459168	          0.41104368	          0.02379642	          0.00022934	          0.00000000	          0.00018185	          0.00000000	          1.23382453	          0.00000000	          0.00000000	          0.00602400	          0.00000000	
          1.64900000	         29.96817025	        961.99088026	         75.35671011	         -0.20873619	          0.00000000	         -0.06741473	         -0.02639933	          0.42704518	          0.02418478	          0.00023416	          0.00000000	          0.00018523	          0.00000000	          1.25406993	          0.00000000	          0.00000000	          0.00642828	          0.00000000	
          1.65000000	         30.29995868	        962.63759554	         75.58255585	         -0.20836700	          0.00000000	         -0.06751302	         -0.02826593	          0.44276997	          0.02450934	          0.00023846	          0.00000000	          0.00018817	          0.00000000	          1.27398803	          0.00000000	          0.00000000	          0.00684358	          0.00000000	
